<svg xmlns="http://www.w3.org/2000/svg" viewBox="0 0 1200 360" role="img" aria-labelledby="title desc">
  <title id="title">JornadaDex - Gestión de Colaboradores</title>
  <desc id="desc">Logo moderno y minimalista para JornadaDex, sistema de gestión de colaboradores, con símbolo de personas conectadas y flujo de trazabilidad.</desc>

  <defs>
    <linearGradient id="cyanBlue" x1="0" y1="0" x2="1" y2="1">
      <stop offset="0%" stop-color="#42E6A4"/>
      <stop offset="100%" stop-color="#0B7A53"/>
    </linearGradient>
    <linearGradient id="blueCyan" x1="0" y1="1" x2="1" y2="0">
      <stop offset="0%" stop-color="#0B7A53"/>
      <stop offset="100%" stop-color="#42E6A4"/>
    </linearGradient>
    <filter id="softShadow" x="-20%" y="-20%" width="140%" height="140%">
      <feDropShadow dx="0" dy="8" stdDeviation="8" flood-color="#0B7A53" flood-opacity="0.12"/>
    </filter>
  </defs>

  <rect width="1200" height="360" fill="none"/>

  <!-- Icon -->
  <g transform="translate(80 55)" filter="url(#softShadow)">
    <!-- circular tracking path -->
    <path d="M198 18 A122 122 0 1 0 229 64" fill="none" stroke="#0B7A53" stroke-width="14" stroke-linecap="round"/>
    <path d="M198 18 A122 122 0 0 1 250 74" fill="none" stroke="#42E6A4" stroke-width="14" stroke-linecap="round"/>
    <path d="M255 54 L253 94 L219 75 Z" fill="#42E6A4"/>

    <!-- tracking nodes -->
    <circle cx="195" cy="20" r="22" fill="#FFFFFF" stroke="#42E6A4" stroke-width="12"/>
    <circle cx="36" cy="168" r="19" fill="#FFFFFF" stroke="#42E6A4" stroke-width="11"/>

    <!-- people -->
    <circle cx="175" cy="118" r="33" fill="#0B7A53"/>
    <path d="M113 232 C113 185 137 158 175 158 C213 158 237 185 237 232 Z" fill="#0B7A53"/>

    <circle cx="74" cy="157" r="25" fill="#42E6A4"/>
    <path d="M31 232 C31 194 48 179 74 179 C100 179 117 194 117 232 Z" fill="#42E6A4"/>

    <circle cx="276" cy="157" r="25" fill="#42E6A4"/>
    <path d="M233 232 C233 194 250 179 276 179 C302 179 319 194 319 232 Z" fill="#42E6A4"/>

    <!-- workflow line -->
    <path d="M175 250 V288 M175 272 H86 V305 M175 272 H264 V305" fill="none" stroke="#0B7A53" stroke-width="8" stroke-linecap="round" stroke-linejoin="round"/>
    <circle cx="86" cy="305" r="16" fill="#FFFFFF" stroke="#42E6A4" stroke-width="8"/>
    <circle cx="175" cy="305" r="16" fill="#FFFFFF" stroke="#0B7A53" stroke-width="8"/>
    <circle cx="264" cy="305" r="16" fill="#FFFFFF" stroke="#42E6A4" stroke-width="8"/>
  </g>

  <!-- Wordmark -->
  <g transform="translate(430 137)">
    <text x="0" y="75" font-family="Montserrat, Poppins, Avenir Next, Arial, sans-serif" font-size="96" font-weight="800" letter-spacing="-5" fill="#0B7A53">Jornada</text>
    <text x="382" y="75" font-family="Montserrat, Poppins, Avenir Next, Arial, sans-serif" font-size="96" font-weight="400" letter-spacing="-5" fill="#12A66A">Dex</text>
    <line x1="358" y1="-4" x2="358" y2="76" stroke="#42E6A4" stroke-width="8" stroke-linecap="round"/>
    <text x="6" y="140" font-family="Montserrat, Poppins, Avenir Next, Arial, sans-serif" font-size="36" font-weight="400" letter-spacing="14" fill="#0B7A53">Gestión de Colaboradores</text>
  </g>
</svg>
